<?xml version="1.0" encoding="UTF-8" standalone="no"?>
<svg
   xmlns:sketch="http://www.bohemiancoding.com/sketch/ns"
   xmlns:dc="http://purl.org/dc/elements/1.1/"
   xmlns:cc="http://creativecommons.org/ns#"
   xmlns:rdf="http://www.w3.org/1999/02/22-rdf-syntax-ns#"
   xmlns:svg="http://www.w3.org/2000/svg"
   xmlns="http://www.w3.org/2000/svg"
   xmlns:sodipodi="http://sodipodi.sourceforge.net/DTD/sodipodi-0.dtd"
   xmlns:inkscape="http://www.inkscape.org/namespaces/inkscape"
   width="115px"
   height="115px"
   viewBox="0 0 115 115"
   version="1.1"
   id="svg4272"
   inkscape:version="0.91 r13725"
   sodipodi:docname="json.svg">
  <metadata
     id="metadata4291">
    <rdf:RDF>
      <cc:Work
         rdf:about="">
        <dc:format>image/svg+xml</dc:format>
        <dc:type
           rdf:resource="http://purl.org/dc/dcmitype/StillImage" />
      </cc:Work>
    </rdf:RDF>
  </metadata>
  <sodipodi:namedview
     pagecolor="#ffffff"
     bordercolor="#666666"
     borderopacity="1"
     objecttolerance="10"
     gridtolerance="10"
     guidetolerance="10"
     inkscape:pageopacity="0"
     inkscape:pageshadow="2"
     inkscape:window-width="1918"
     inkscape:window-height="1182"
     id="namedview4289"
     showgrid="false"
     inkscape:zoom="2.0521739"
     inkscape:cx="57.5"
     inkscape:cy="57.5"
     inkscape:window-x="1680"
     inkscape:window-y="16"
     inkscape:window-maximized="0"
     inkscape:current-layer="Imported-Layers-Copy-3" />
  <!-- Generator: Sketch 3.3.2 (12043) - http://www.bohemiancoding.com/sketch -->
  <title
     id="title4274">Imported Layers Copy 3</title>
  <desc
     id="desc4276">Created with Sketch.</desc>
  <defs
     id="defs4278" />
  <g
     id="Page-1"
     stroke="none"
     stroke-width="1"
     fill="none"
     fill-rule="evenodd"
     sketch:type="MSPage">
    <g
       id="Artboard-25"
       sketch:type="MSArtboardGroup"
       transform="translate(-393.000000, -140.000000)">
      <g
         id="Imported-Layers-Copy-3"
         sketch:type="MSLayerGroup"
         transform="translate(393.000000, 140.000000)">
        <path
           d="M114.216,57.756 C114.216,89.18 88.742,114.654 57.318,114.654 C25.893,114.654 0.419,89.18 0.419,57.756 C0.419,26.332 25.893,0.858 57.318,0.858 C88.742,0.858 114.216,26.332 114.216,57.756"
           id="Fill-1"
           fill="#D6DEEE"
           sketch:type="MSShapeGroup"
           style="fill:#808080" />
        <path
           d="M46.873,60.858 C46.873,63.116 45.042,64.946 42.784,64.946 C40.526,64.946 38.696,63.116 38.696,60.858 C38.696,58.6 40.526,56.769 42.784,56.769 C45.042,56.769 46.873,58.6 46.873,60.858"
           id="Fill-2"
           fill="#1969A0"
           sketch:type="MSShapeGroup"
           style="fill:#ffffff" />
        <path
           d="M61.393,60.858 C61.393,63.116 59.563,64.946 57.304,64.946 C55.046,64.946 53.216,63.116 53.216,60.858 C53.216,58.6 55.046,56.769 57.304,56.769 C59.563,56.769 61.393,58.6 61.393,60.858"
           id="Fill-3"
           fill="#1969A0"
           sketch:type="MSShapeGroup"
           style="fill:#ffffff" />
        <path
           d="M75.914,60.858 C75.914,63.116 74.083,64.946 71.825,64.946 C69.567,64.946 67.736,63.116 67.736,60.858 C67.736,58.6 69.567,56.769 71.825,56.769 C74.083,56.769 75.914,58.6 75.914,60.858"
           id="Fill-4"
           fill="#1969A0"
           sketch:type="MSShapeGroup"
           style="fill:#ffffff" />
        <path
           d="M23.405,57.996 C27.166,57.996 27.696,55.931 27.696,54.077 C27.696,52.594 27.484,51.111 27.272,49.628 C27.06,48.145 26.848,46.715 26.848,45.231 C26.848,40.359 30.026,38.293 34.528,38.293 L35.64,38.293 L35.64,41.206 L34.687,41.206 C31.562,41.206 30.503,42.901 30.503,45.761 C30.503,46.979 30.662,48.251 30.874,49.522 C31.086,50.846 31.245,52.117 31.245,53.547 C31.298,56.937 29.814,58.632 27.431,59.268 L27.431,59.374 C29.814,59.956 31.298,61.757 31.245,65.147 C31.245,66.577 31.086,67.901 30.874,69.172 C30.662,70.497 30.503,71.715 30.503,72.986 C30.503,75.952 31.721,77.594 34.687,77.594 L35.64,77.594 L35.64,80.507 L34.528,80.507 C30.132,80.507 26.848,78.6 26.848,73.251 C26.848,71.821 27.06,70.338 27.272,68.907 C27.484,67.477 27.696,66.047 27.696,64.617 C27.696,62.975 27.166,60.698 23.405,60.698 L23.405,57.996"
           id="Fill-5"
           fill="#15384C"
           sketch:type="MSShapeGroup"
           style="fill:#ffffff" />
        <path
           d="M91.23,60.698 C87.469,60.698 86.939,62.975 86.939,64.617 C86.939,66.047 87.151,67.477 87.363,68.907 C87.575,70.338 87.787,71.821 87.787,73.251 C87.787,78.6 84.503,80.507 80.107,80.507 L78.994,80.507 L78.994,77.594 L79.948,77.594 C82.914,77.594 84.132,75.952 84.132,72.986 C84.132,71.715 83.973,70.497 83.761,69.172 C83.549,67.901 83.39,66.577 83.39,65.147 C83.338,61.757 84.821,59.956 87.204,59.374 L87.204,59.268 C84.821,58.632 83.338,56.937 83.39,53.547 C83.39,52.117 83.549,50.846 83.761,49.522 C83.973,48.251 84.132,46.979 84.132,45.761 C84.132,42.901 83.073,41.206 79.948,41.206 L78.994,41.206 L78.994,38.293 L80.107,38.293 C84.609,38.293 87.787,40.359 87.787,45.231 C87.787,46.715 87.575,48.145 87.363,49.628 C87.151,51.111 86.939,52.594 86.939,54.077 C86.939,55.931 87.469,57.996 91.23,57.996 L91.23,60.698"
           id="Fill-6"
           fill="#15384C"
           sketch:type="MSShapeGroup"
           style="fill:#ffffff" />
      </g>
    </g>
  </g>
</svg>
