<?xml version="1.0" encoding="UTF-8" standalone="no"?>
<svg
   xmlns:svg="http://www.w3.org/2000/svg"
   xmlns="http://www.w3.org/2000/svg"
   width="400"
   height="400"
   viewBox="0 0 1792 1792">
  <rect
     width="100%"
     height="100%"
     x="0"
     y="0"
     style="fill:#555555"
     id="background" />
  <path
     style="fill:#fefefe"
     d="m 662.0565,661.42373 q 0,58.64407 -40.94011,99.69491 -40.94012,41.05085 -99.42599,41.05085 -58.48588,0 -99.42599,-41.05085 -40.94011,-41.05084 -40.94011,-99.69491 0,-58.64407 40.94011,-99.69492 40.94011,-41.05084 99.42599,-41.05084 58.48587,0 99.42599,41.05084 40.94011,41.05085 40.94011,99.69492 z m 748.6192,281.49152 0,328.40675 -1029.3514,0 0,-140.7457 L 615.2678,896 732.23955,1013.2881 1106.5492,637.9661 Z m 70.1831,-516.06779 -1169.71756,0 q -9.50395,0 -16.44915,6.96398 -6.9452,6.96399 -6.9452,16.49365 l 0,891.38981 q 0,9.5297 6.9452,16.4937 6.9452,6.9639 16.44915,6.9639 l 1169.71756,0 q 9.5039,0 16.4491,-6.9639 6.9452,-6.964 6.9452,-16.4937 l 0,-891.38981 q 0,-9.52966 -6.9452,-16.49365 -6.9452,-6.96398 -16.4491,-6.96398 z m 116.9717,23.45763 0,891.38981 q 0,48.3814 -34.3604,82.8348 -34.3605,34.4533 -82.6113,34.4533 l -1169.71756,0 q -48.25084,0 -82.61129,-34.4533 -34.36046,-34.4534 -34.36046,-82.8348 l 0,-891.38981 q 0,-48.38136 34.36046,-82.83475 34.36045,-34.45339 82.61129,-34.45339 l 1169.71756,0 q 48.2508,0 82.6113,34.45339 34.3604,34.45339 34.3604,82.83475 z"
     id="icon" />
</svg>
